<svg style="width: 0; height: 0;"
  aria-hidden="true"
  version="1.1"
  xmlns="http://www.w3.org/2000/svg">
  <defs>
  <symbol id="gear" viewBox="0 0 8.4666668 8.4666668" stroke="currentColor" fill="none">
  <path style="stroke-width:0.8; stroke-linejoin:round;"
        d="M 4.2164197,0.43240785 A 3.8174691,3.8174691 0 0 0 3.4155511,0.51902359 C 3.3915012,1.0643269 3.2964254,1.5962205 2.8217071,1.8750209 2.3472386,2.1536754 1.8366382,1.9780138 1.3489098,1.733614 A 3.8174691,3.8174691 0 0 0 0.58511581,3.0781282 C 1.0452765,3.3715887 1.45834,3.7199502 1.4624294,4.2704083 1.4664927,4.820562 1.0589336,5.1749975 0.60348899,5.475156 A 3.8174691,3.8174691 0 0 0 1.3859844,6.8091712 C 1.870243,6.5573603 2.3783484,6.3737449 2.8571413,6.6454542 3.3357088,6.9170355 3.4387933,7.4470103 3.4709982,7.9916087 a 3.8174691,3.8174691 0 0 0 0.7454215,0.075789 3.8174691,3.8174691 0 0 0 0.800868,-0.086288 C 5.0413375,7.4358044 5.1364109,6.9035861 5.6111315,6.6247846 6.0855576,6.346155 6.5962405,6.5221538 7.083929,6.7665195 A 3.8174691,3.8174691 0 0 0 7.8480511,5.4216772 C 7.3878734,5.1282109 6.974827,4.7802004 6.9707375,4.2297251 6.9666743,3.6787759 7.3750765,3.3241004 7.8313185,3.0236651 A 3.8174691,3.8174691 0 0 0 7.0481666,1.6903061 C 6.563635,1.9423603 6.0547901,2.1265586 5.5756975,1.8546792 5.0965053,1.5827433 4.9939021,1.0515751 4.9618404,0.50622812 A 3.8174691,3.8174691 0 0 0 4.2164197,0.43240785 Z m 0,2.42032235 A 1.3969888,1.3969888 0 0 1 5.6134279,4.2497387 1.3969888,1.3969888 0 0 1 4.2164197,5.6467472 1.3969888,1.3969888 0 0 1 2.8194109,4.2497387 1.3969888,1.3969888 0 0 1 4.2164197,2.8527302 Z"/>
  </symbol>
  </defs>
</svg>
