<svg
   width="32"
   height="32"
   viewBox="0 0 8.4666666 8.4666666"
   version="1.1"
   class="iconify iconify--logos"
   xmlns="http://www.w3.org/2000/svg"
   xmlns:svg="http://www.w3.org/2000/svg">
   <g id="layer1"><path
       style="color:#000000;fill:#239126;stroke-linecap:round;stroke-linejoin:round;stroke:#000000;stroke-opacity:1;stroke-width:0.24694443;stroke-dasharray:none;fill-opacity:1"
       d="m 7.5175781,5.2109375 a 0.33626699,0.33626699 0 0 0 -0.03125,0.00586 c -3.125e-4,1.4e-6 -0.014337,-5.364e-4 -5.890625,0.054687 A 0.33626699,0.33626699 0 0 0 1.2617187,5.6113281 0.33626699,0.33626699 0 0 0 1.6015625,5.9453125 c 5.90745,-0.055517 5.9140625,-0.056641 5.9140625,-0.056641 a 0.33630062,0.33630062 0 0 0 0.064453,-0.6660157 z"
       id="path22172" /><path
       style="fill:#ffffff;fill-opacity:1;stroke:#000000;stroke-width:0.43815;stroke-linejoin:round;stroke-dasharray:none;stroke-dashoffset:153.902;stroke-opacity:1"
       d="M 0.34486453,3.3888095 0.49257474,3.5338827 7.9249268,3.5455551 8.2115705,3.2098715 8.2135917,2.7512888 7.8130651,1.9481697 7.1611363,1.327449 6.0877822,0.74345807 5.126473,0.51867923 4.0746664,0.46960447 3.2243074,0.53348377 2.0655398,0.87823325 1.3260002,1.3215426 0.74394329,1.8763336 0.3878894,2.472964 0.26582215,3.0130837 Z"
       id="path432" /><path
       style="color:#000000;fill:#dddda1;stroke-linecap:round;stroke-linejoin:round;stroke-width:0.18873611;stroke-dasharray:none;stroke:#000000;stroke-opacity:1"
       d="m 0.92578125,4.4433594 a 0.28486806,0.28486806 0 0 0 -0.2890625,0.28125 0.28486806,0.28486806 0 0 0 0.28125,0.2871093 C 3.6966061,5.0488812 3.703125,5.0507812 3.703125,5.0507812 A 0.28489655,0.28489655 0 0 0 3.7597656,4.4863281 L 3.703125,4.4746094 a 0.28486806,0.28486806 0 0 0 -0.027344,0.00586 c -2.714e-4,-3e-6 0.00128,-3.128e-4 -2.75000005,-0.037109 z"
       id="path22234" /><path
       style="fill:#ffffff;fill-opacity:1;stroke:#000000;stroke-width:0.43815;stroke-linejoin:round;stroke-dasharray:none;stroke-dashoffset:153.902"
       d="M 0.48686108,6.7143484 7.8462697,6.7017639 7.9843213,6.9146364 7.887147,7.3077346 7.6079857,7.632942 7.3520045,7.7272561 0.86905688,7.7100354 0.62869119,7.4969547 0.46333327,7.165485 Z"
       id="path990" /><path
       style="color:#000000;fill:#d02b1d;stroke-linecap:round;stroke-linejoin:round;stroke-dashoffset:153.902;stroke:#000000;stroke-opacity:1;stroke-width:0.08819444;stroke-dasharray:none"
       d="M 7.2773437,4.8046875 C 6.9664315,4.7740823 6.5625398,4.7913051 6.1875,4.9824219 6.0930747,5.0305402 6.0048399,5.0354217 5.8730469,5.0097656 5.7412539,4.9841095 5.5784791,4.9214419 5.3925781,4.8554687 5.0207761,4.7235225 4.5218505,4.583765 3.9902344,4.8457031 3.7651341,4.9566148 3.617844,5.032462 3.5253906,5.0722656 3.4329373,5.1120693 3.4135403,5.1122465 3.3984375,5.1113281 3.3682318,5.1094914 3.1947676,5.021349 2.7246094,4.8886719 2.206029,4.7423301 1.7834277,4.8660401 1.5136719,5.0332031 1.3748304,5.1192408 1.3717382,5.1559926 1.3027344,5.2324219 L 1.0097656,5.0234375 a 0.25576389,0.25576389 0 0 0 -0.35546873,0.058594 0.25576389,0.25576389 0 0 0 0.0585938,0.3574219 L 1.1679687,5.765625 a 0.25578946,0.25578946 0 0 0 0.3652344,-0.070312 c 0,0 0.07636,-0.1189607 0.25,-0.2265625 0.1736401,-0.1076018 0.4188564,-0.1962199 0.8027344,-0.087891 0.4323001,0.1219936 0.5366808,0.225363 0.78125,0.2402343 0.1222846,0.00744 0.239493,-0.027625 0.3613281,-0.080078 C 3.8503508,5.4885623 3.9948262,5.4140571 4.2167969,5.3046875 4.5793226,5.1260637 4.8709118,5.2137556 5.2207031,5.3378906 5.3955988,5.3999581 5.5763662,5.4729747 5.7753906,5.5117187 5.9744151,5.5504628 6.2047371,5.5471563 6.4199219,5.4375 6.9082827,5.1886358 7.6464844,5.4003906 7.6464844,5.4003906 A 0.25578946,0.25578946 0 0 0 7.90625,4.9726562 L 7.890625,4.9589844 a 0.25576389,0.25576389 0 0 0 -0.1113281,0.00195 l 0.027344,-0.046875 c 0,0 -0.2183846,-0.07877 -0.5292969,-0.109375 z"
       id="path1679" /><path
       style="fill:none;fill-opacity:1;stroke:#000000;stroke-width:0.15875;stroke-linecap:round;stroke-linejoin:round;stroke-dasharray:0.15875,1.90499997;stroke-dashoffset:0;stroke-opacity:1"
       d="m 1.9343536,2.3404819 c 0.069923,-0.0598 0.1332472,-0.1283149 0.2097684,-0.179401 0.045082,-0.030097 0.1028616,-0.03564 0.1506524,-0.061219 0.1217652,-0.06517 0.2359163,-0.1628577 0.3692064,-0.2090657 0.051373,-0.017809 0.1077891,-0.016181 0.160233,-0.030532 0.1265351,0.039902 0.1732846,-0.094026 0.2670376,-0.1221678 0.1237985,-0.037161 0.2541016,-0.050734 0.382959,-0.060872 0.23241,-0.018286 0.4768805,0.01425 0.7064562,0.039758 0.050914,0.00566 0.09975,0.024783 0.1506967,0.030139 0.1332502,0.014011 0.379744,-0.044913 0.4474979,0.097044 0.00586,0.012278 0.027875,0.01654 0.02752,0.030139 -0.0069,0.2642699 -1.0995935,0.3321566 -1.3067628,0.4106132 -0.038332,0.014517 -0.065521,0.050208 -0.1024266,0.068042 -0.050933,0.024614 -0.1735626,0.056707 -0.1371279,0.09998 0.1464294,0.17391 0.207151,0.1114052 0.4728546,0.186934 0.1651092,0.046934 0.321342,0.1285777 0.4908232,0.1557801 0.2688246,0.043148 0.6333302,-0.00167 0.8907949,-0.09577 0.3030773,-0.1107665 0.5081863,-0.3289184 0.7883533,-0.4655845 0.1066573,-0.052028 0.1810668,0.020906 0.1189974,0.1459974 -0.015028,0.030289 -0.047386,0.048567 -0.067328,0.075873 -0.1375129,0.1882943 -0.086169,0.2731885 0.1497402,0.2508625 0.046754,-0.00442 0.090773,-0.026954 0.1376283,-0.03014 0.1151271,-0.00783 0.3494889,0.023617 0.4789545,-0.033068 0.110344,-0.048314 0.3114863,-0.2316826 0.3654391,-0.3390434 0.014777,-0.029402 0,-0.065813 0,-0.098719 0,-0.020093 0.01292,-0.044891 0,-0.060279 C 6.9825321,2.0221817 6.0662311,1.9704805 5.8302053,1.9574943 c -0.4807204,-0.026449 -0.2696826,0.0616 -0.5848101,-0.071689 -0.066103,-0.027959 -0.1269,-0.069033 -0.1954125,-0.090418 -0.016896,-0.00527 -0.054441,0.017648 -0.053097,0 0.00999,-0.131233 0.2498616,-0.4012958 0.3048,-0.4972904 0.036023,-0.062943 0.055617,-0.1345675 0.093177,-0.1966055 0.023947,-0.039552 0.053626,-0.08405 0.097489,-0.098671 0.047655,-0.0158848 0.1004644,0 0.1506966,0 0.010046,0 0.040186,0 0.030139,0 -0.3514248,0 -0.6612958,0.08751 -1.0070105,0.1460148 -0.242575,0.041051 -0.4913442,0.036028 -0.7342335,0.075176 -0.4572297,0.073696 -0.9088427,0.2329615 -1.3360412,0.4027426 -0.022889,0.0091 -0.4829513,0.1547716 -0.5098444,0.2623439 -0.026159,0.1046377 0.030139,0.2000215 0.030139,0.3013931"
       id="path13179" /><path
       style="fill:#fa4b4b;fill-opacity:1;stroke:#000000;stroke-width:0.15875;stroke-linecap:round;stroke-linejoin:round;stroke-dasharray:none;stroke-dashoffset:0;stroke-opacity:1"
       d="m 4.093261,3.8417566 c 0,0 1.0166821,0.6958105 1.7052361,0.7849163 0.6885541,0.089106 1.251566,-0.015153 1.5115445,-0.1099934 C 7.5700198,4.4218373 7.9486672,4.225359 7.9450432,4.0855775 7.9414184,3.9457958 7.8886081,3.8324456 7.8435003,3.8239266 7.7983923,3.815407 4.093261,3.8417568 4.093261,3.8417566 Z"
       id="path13876" /><path
       style="color:#000000;fill:#e7e266;stroke-linecap:round;stroke-linejoin:round;stroke-width:0.15345833;stroke-dasharray:none;stroke:#000000;stroke-opacity:1"
       d="m 0.83203125,3.6855469 a 0.3792361,0.3792361 0 0 0 -0.3828125,0.375 0.3792361,0.3792361 0 0 0 0.375,0.3828125 C 2.222611,4.4566368 2.7994791,4.4489051 3.1445313,4.484375 3.4895834,4.5198449 3.6556886,4.5966677 4.328125,4.8125 5.7782766,5.2779565 7.5507812,5.0761719 7.5507812,5.0761719 A 0.3792361,0.3792361 0 0 0 7.8886719,4.6601562 0.3792361,0.3792361 0 0 0 7.4726562,4.3222656 c 0,0 -1.7037631,0.1554222 -2.9121093,-0.2324219 C 3.9037341,3.8790261 3.6557305,3.7749869 3.2226563,3.7304688 2.789582,3.6859506 2.2248251,3.6987711 0.83203125,3.6855469 Z"
       id="path17304" /><path
       style="fill:none;fill-opacity:1;stroke:#ffffff;stroke-width:0.584387;stroke-linecap:round;stroke-linejoin:round;stroke-dasharray:none;stroke-dashoffset:153.902;stroke-opacity:1"
       d="M 0.70556998,6.1241386 C 7.6632129,6.1503703 7.6632129,6.1503703 7.6632129,6.1503703"
       id="path1446" />
   </g>
</svg>
